ply
format ascii 1.0
comment VCGLIB generated
element vertex 54
property float x
property float y
property float z
property float nx
property float ny
property float nz
element face 48
property list uchar int vertex_indices
end_header
-4.5 6 0.15 0 0 1 
0 0 0.15 0 0 1 
0 6 0.15 0 0 1 
4.5 -6 0.15 0 -1 0 
0 -6 0 0 -1 0 
4.5 -6 0 0 -1 0 
-4.5 -6 0.15 -1 0 0 
-4.5 0 0 -1 0 0 
-4.5 -6 0 -1 0 0 
4.5 6 -0.15 0 0 -1 
0 0 -0.15 0 0 -1 
0 6 -0.15 0 0 -1 
4.5 6 0.15 1 0 0 
4.5 0 0 1 0 0 
4.5 6 0 1 0 0 
-4.5 6 0.15 0 1 0 
0 6 0 0 1 0 
-4.5 6 0 0 1 0 
-4.5 0 0.15 0 0 1 
0 -6 0.15 0 -1 0 
-4.5 0 0.15 -1 0 0 
4.5 0 -0.15 0 0 -1 
4.5 0 0.15 1 0 0 
0 6 0.15 0 1 0 
4.5 6 0 0 1 0 
4.5 6 -0.15 0 1 0 
4.5 6 0.15 0 1 0 
4.5 -6 0 1 0 0 
4.5 -6 -0.15 1 0 0 
4.5 -6 0.15 1 0 0 
0 -6 -0.15 0 0 -1 
-4.5 -6 -0.15 0 0 -1 
4.5 -6 -0.15 0 0 -1 
-4.5 6 0 -1 0 0 
-4.5 6 -0.15 -1 0 0 
-4.5 6 0.15 -1 0 0 
-4.5 -6 0 0 -1 0 
-4.5 -6 -0.15 0 -1 0 
-4.5 -6 0.15 0 -1 0 
0 -6 0.15 0 0 1 
4.5 -6 0.15 0 0 1 
-4.5 -6 0.15 0 0 1 
0 6 -0.15 0 1 0 
-4.5 6 -0.15 0 1 0 
4.5 0 -0.15 1 0 0 
4.5 6 -0.15 1 0 0 
-4.5 0 -0.15 0 0 -1 
-4.5 6 -0.15 0 0 -1 
-4.5 0 -0.15 -1 0 0 
-4.5 -6 -0.15 -1 0 0 
0 -6 -0.15 0 -1 0 
4.5 -6 -0.15 0 -1 0 
4.5 0 0.15 0 0 1 
4.5 6 0.15 0 0 1 
3 0 1 2 
3 3 4 5 
3 6 7 8 
3 9 10 11 
3 12 13 14 
3 15 16 17 
3 0 18 1 
3 3 19 4 
3 6 20 7 
3 9 21 10 
3 12 22 13 
3 15 23 16 
3 16 24 25 
3 16 23 24 
3 23 26 24 
3 13 27 28 
3 13 22 27 
3 22 29 27 
3 10 30 31 
3 10 21 30 
3 21 32 30 
3 7 33 34 
3 7 20 33 
3 20 35 33 
3 4 36 37 
3 4 19 36 
3 19 38 36 
3 1 39 40 
3 1 18 39 
3 18 41 39 
3 17 42 43 
3 17 16 42 
3 16 25 42 
3 14 44 45 
3 14 13 44 
3 13 28 44 
3 11 46 47 
3 11 10 46 
3 10 31 46 
3 8 48 49 
3 8 7 48 
3 7 34 48 
3 5 50 51 
3 5 4 50 
3 4 37 50 
3 2 52 53 
3 2 1 52 
3 1 40 52 
